<svg xmlns="http://www.w3.org/2000/svg" xmlns:svg="http://www.w3.org/2000/svg" id="svg2" width="43.75" height="26.25" version="1.1" xml:space="preserve"><metadata id="metadata8"/><defs id="defs6"><clipPath id="clipPath16"><path id="path18" d="M 0,21 35,21 35,0 0,0 0,21 z"/></clipPath></defs><g id="g10" transform="matrix(1.25,0,0,-1.25,0,26.25)"><g id="g12"><g id="g14" clip-path="url(#clipPath16)"><g id="g20" transform="translate(17.5,7.4746)"><path id="path22" d="m 0,0 c -1.667,0 -3.024,1.358 -3.024,3.025 0,1.668 1.357,3.024 3.024,3.024 1.667,0 3.023,-1.356 3.023,-3.024 C 3.023,1.358 1.667,0 0,0 m 3.788,4.595 0,2.217 -2.22,0 L 0,8.383 -1.568,6.812 l -2.219,0 0,-2.217 -1.568,-1.57 1.568,-1.569 0,-2.219 2.219,0 1.568,-1.569 1.568,1.569 2.22,0 0,2.219 1.568,1.569 -1.568,1.57 z" style="fill:#fff;fill-opacity:1;fill-rule:nonzero;stroke:none"/></g></g></g></g></svg>