<svg xmlns="http://www.w3.org/2000/svg" xmlns:svg="http://www.w3.org/2000/svg" id="svg2" width="43.75" height="26.25" version="1.1" xml:space="preserve"><metadata id="metadata8"/><defs id="defs6"><clipPath id="clipPath16"><path id="path18" d="M 0,21 35,21 35,0 0,0 0,21 z"/></clipPath></defs><g id="g10" transform="matrix(1.25,0,0,-1.25,0,26.25)"><g id="g12"><g id="g14" clip-path="url(#clipPath16)"><g id="g20" transform="translate(17.5,8.5654)"><path id="path22" d="m 0,0 c -1.068,0 -1.934,0.868 -1.934,1.935 0,1.066 0.866,1.933 1.934,1.933 1.067,0 1.932,-0.867 1.932,-1.933 C 1.932,0.868 1.067,0 0,0 m 2.766,3.081 0,1.618 -1.62,0 L 0,5.846 -1.145,4.699 l -1.62,0 0,-1.618 -1.145,-1.146 1.145,-1.147 0,-1.619 1.62,0 1.145,-1.146 1.146,1.146 1.62,0 0,1.62 1.144,1.146 -1.144,1.146 z" style="fill:#fff;fill-opacity:1;fill-rule:nonzero;stroke:none"/></g></g></g></g></svg>