<svg xmlns="http://www.w3.org/2000/svg" xmlns:svg="http://www.w3.org/2000/svg" id="svg2" width="43.75" height="26.25" version="1.1" xml:space="preserve"><metadata id="metadata8"/><defs id="defs6"><clipPath id="clipPath16"><path id="path18" d="M 0,21 35,21 35,0 0,0 0,21 z"/></clipPath></defs><g id="g10" transform="matrix(1.25,0,0,-1.25,0,26.25)"><g id="g12"><g id="g14" clip-path="url(#clipPath16)"><g id="g20" transform="translate(22.5938,10.7666)"><path id="path22" d="M 0,0 0,4.266 -1.659,2.607 C -2.556,3.619 -3.84,4.238 -5.214,4.263 -6.502,4.291 -7.753,3.804 -8.692,2.899 c -0.94,-0.905 -1.47,-2.122 -1.495,-3.426 -0.048,-2.691 2.101,-4.921 4.791,-4.971 0.03,-10e-4 0.059,-10e-4 0.088,-10e-4 1.7,0 3.295,0.899 4.182,2.362 l -1.197,0.725 c -0.646,-1.063 -1.815,-1.681 -3.047,-1.687 -1.919,0.036 -3.451,1.627 -3.416,3.546 0.016,0.93 0.395,1.799 1.065,2.444 0.67,0.645 1.509,0.987 2.481,0.973 1.009,-0.019 1.949,-0.487 2.59,-1.248 L -4.267,0 0,0 z" style="fill:#fff;fill-opacity:1;fill-rule:nonzero;stroke:none"/></g></g></g></g></svg>