<svg xmlns="http://www.w3.org/2000/svg" xmlns:svg="http://www.w3.org/2000/svg" id="svg2" width="43.75" height="26.25" version="1.1" xml:space="preserve"><metadata id="metadata8"/><defs id="defs6"><clipPath id="clipPath18"><path id="path20" d="M 0,21 35,21 35,0 0,0 0,21 z"/></clipPath></defs><g id="g10" transform="matrix(1.25,0,0,-1.25,0,26.25)"><path id="path12" d="m 18.095,10.755 -1.26,0 0,6.159 1.26,0 0,-6.159 z" style="fill:#fff;fill-opacity:1;fill-rule:nonzero;stroke:none"/><g id="g14"><g id="g16" clip-path="url(#clipPath18)"><g id="g22" transform="translate(17.4648,5.8057)"><path id="path24" d="m 0,0 c -2.695,0 -4.889,2.193 -4.889,4.888 0,1.416 0.629,2.765 1.727,3.703 L -2.684,9 -1.864,8.042 -2.344,7.633 C -3.16,6.935 -3.629,5.935 -3.629,4.888 c 0,-2 1.628,-3.628 3.629,-3.628 2,0 3.628,1.628 3.628,3.628 0,1.037 -0.46,2.03 -1.263,2.727 L 1.89,8.028 2.716,8.979 3.191,8.567 C 4.27,7.631 4.888,6.29 4.888,4.888 4.888,2.193 2.695,0 0,0" style="fill:#fff;fill-opacity:1;fill-rule:nonzero;stroke:none"/></g></g></g></g></svg>