<svg xmlns="http://www.w3.org/2000/svg" xmlns:svg="http://www.w3.org/2000/svg" id="svg2" width="43.75" height="26.25" version="1.1" xml:space="preserve"><metadata id="metadata8"/><defs id="defs6"><clipPath id="clipPath16"><path id="path18" d="M 0,21 35,21 35,0 0,0 0,21 z"/></clipPath></defs><g id="g10" transform="matrix(1.25,0,0,-1.25,0,26.25)"><g id="g12"><g id="g14" clip-path="url(#clipPath16)"><g id="g20" transform="translate(13.3418,11.0693)"><path id="path22" d="m 0,0 c 0,0.002 4.797,-4.8 4.797,-4.8 l 0,9.6 L 0,0 z" style="fill:#fff;fill-opacity:1;fill-rule:nonzero;stroke:none"/></g><g id="g24" transform="translate(21.251,11.0693)"><path id="path26" d="m 0,0 c 0,1.216 -0.854,2.23 -1.992,2.486 l 0,-1.169 C -1.48,1.099 -1.12,0.591 -1.12,0 c 0,-0.591 -0.36,-1.099 -0.872,-1.317 l 0,-1.169 C -0.854,-2.23 0,-1.216 0,0" style="fill:#fff;fill-opacity:1;fill-rule:nonzero;stroke:none"/></g><g id="g28" transform="translate(19.2588,15.8086)"><path id="path30" d="M 0,0 0,-1.12 C 1.76,-1.393 3.115,-2.904 3.115,-4.739 3.115,-6.575 1.76,-8.086 0,-8.359 l 0,-1.12 c 2.381,0.281 4.235,2.283 4.235,4.74 C 4.235,-2.282 2.381,-0.281 0,0" style="fill:#fff;fill-opacity:1;fill-rule:nonzero;stroke:none"/></g><g id="g32" transform="translate(13.3564,12.6724)"><path id="path34" d="m 0,0 0,-3.191 1.598,0 3.193,-3.195 0,9.583 L 1.598,0 0,0 z" style="fill:#fff;fill-opacity:1;fill-rule:nonzero;stroke:none"/></g></g></g></g></svg>