<svg xmlns="http://www.w3.org/2000/svg" xmlns:svg="http://www.w3.org/2000/svg" id="svg2" width="43.75" height="26.25" version="1.1" xml:space="preserve"><metadata id="metadata8"/><defs id="defs6"><clipPath id="clipPath16"><path id="path18" d="M 0,21 35,21 35,0 0,0 0,21 z"/></clipPath></defs><g id="g10" transform="matrix(1.25,0,0,-1.25,0,26.25)"><g id="g12"><g id="g14" clip-path="url(#clipPath16)"><g id="g20" transform="translate(15.0176,11.0693)"><path id="path22" d="m 0,0 c 0,0.002 4.796,-4.8 4.796,-4.8 l 0,9.6 L 0,0 z" style="fill:#fff;fill-opacity:1;fill-rule:nonzero;stroke:none"/></g><g id="g24" transform="translate(20.9336,13.5557)"><path id="path26" d="M 0,0 0,-1.169 C 0.512,-1.387 0.872,-1.896 0.872,-2.486 0.872,-3.077 0.512,-3.585 0,-3.804 l 0,-1.169 c 1.14,0.257 1.992,1.27 1.992,2.487 C 1.992,-1.27 1.14,-0.256 0,0" style="fill:#fff;fill-opacity:1;fill-rule:nonzero;stroke:none"/></g><g id="g28" transform="translate(15.0225,12.6724)"><path id="path30" d="m 0,0 0,-3.191 1.598,0 3.193,-3.195 0,9.583 L 1.598,0 0,0 z" style="fill:#fff;fill-opacity:1;fill-rule:nonzero;stroke:none"/></g></g></g></g></svg>